<?xml version="1.0" encoding="utf-8" standalone="no"?>
<!DOCTYPE svg PUBLIC "-//W3C//DTD SVG 1.1//EN"
  "http://www.w3.org/Graphics/SVG/1.1/DTD/svg11.dtd">
<svg xmlns:xlink="http://www.w3.org/1999/xlink" width="540pt" height="403.2pt" viewBox="0 0 540 403.2" xmlns="http://www.w3.org/2000/svg" version="1.1">
 <metadata>
  <rdf:RDF xmlns:dc="http://purl.org/dc/elements/1.1/" xmlns:cc="http://creativecommons.org/ns#" xmlns:rdf="http://www.w3.org/1999/02/22-rdf-syntax-ns#">
   <cc:Work>
    <dc:type rdf:resource="http://purl.org/dc/dcmitype/StillImage"/>
    <dc:date>2023-12-14T20:40:21.426015</dc:date>
    <dc:format>image/svg+xml</dc:format>
    <dc:creator>
     <cc:Agent>
      <dc:title>Matplotlib v3.5.1, https://matplotlib.org/</dc:title>
     </cc:Agent>
    </dc:creator>
   </cc:Work>
  </rdf:RDF>
 </metadata>
 <defs>
  <style type="text/css">*{stroke-linejoin: round; stroke-linecap: butt}</style>
 </defs>
 <g id="figure_1">
  <g id="patch_1">
   <path d="M 0 403.2 
L 540 403.2 
L 540 0 
L 0 0 
z
" style="fill: #ffffff"/>
  </g>
  <g id="axes_1">
   <g id="patch_2">
    <path d="M 75.35 169.775 
L 470.86 169.775 
L 470.86 16.56 
L 75.35 16.56 
z
" style="fill: #ffffff"/>
   </g>
   <g id="matplotlib.axis_1">
    <g id="xtick_1">
     <g id="line2d_1"/>
    </g>
    <g id="xtick_2">
     <g id="line2d_2"/>
    </g>
    <g id="xtick_3">
     <g id="line2d_3"/>
    </g>
    <g id="xtick_4">
     <g id="line2d_4"/>
    </g>
    <g id="xtick_5">
     <g id="line2d_5"/>
    </g>
    <g id="xtick_6">
     <g id="line2d_6"/>
    </g>
   </g>
   <g id="matplotlib.axis_2">
    <g id="ytick_1">
     <g id="line2d_7">
      <path d="M 75.35 169.775 
L 470.86 169.775 
" clip-path="url(#p275b87c454)" style="fill: none; stroke: #b0b0b0; stroke-width: 0.8; stroke-linecap: square"/>
     </g>
     <g id="line2d_8">
      <defs>
       <path id="m45b52268f9" d="M 0 0 
L -3.5 0 
" style="stroke: #000000; stroke-width: 0.8"/>
      </defs>
      <g>
       <use xlink:href="#m45b52268f9" x="75.35" y="169.775" style="stroke: #000000; stroke-width: 0.8"/>
      </g>
     </g>
     <g id="text_1">
      <!-- 0.80 -->
      <g transform="translate(34.951563 175.473828)scale(0.15 -0.15)">
       <defs>
        <path id="DejaVuSans-30" d="M 2034 4250 
Q 1547 4250 1301 3770 
Q 1056 3291 1056 2328 
Q 1056 1369 1301 889 
Q 1547 409 2034 409 
Q 2525 409 2770 889 
Q 3016 1369 3016 2328 
Q 3016 3291 2770 3770 
Q 2525 4250 2034 4250 
z
M 2034 4750 
Q 2819 4750 3233 4129 
Q 3647 3509 3647 2328 
Q 3647 1150 3233 529 
Q 2819 -91 2034 -91 
Q 1250 -91 836 529 
Q 422 1150 422 2328 
Q 422 3509 836 4129 
Q 1250 4750 2034 4750 
z
" transform="scale(0.015625)"/>
        <path id="DejaVuSans-2e" d="M 684 794 
L 1344 794 
L 1344 0 
L 684 0 
L 684 794 
z
" transform="scale(0.015625)"/>
        <path id="DejaVuSans-38" d="M 2034 2216 
Q 1584 2216 1326 1975 
Q 1069 1734 1069 1313 
Q 1069 891 1326 650 
Q 1584 409 2034 409 
Q 2484 409 2743 651 
Q 3003 894 3003 1313 
Q 3003 1734 2745 1975 
Q 2488 2216 2034 2216 
z
M 1403 2484 
Q 997 2584 770 2862 
Q 544 3141 544 3541 
Q 544 4100 942 4425 
Q 1341 4750 2034 4750 
Q 2731 4750 3128 4425 
Q 3525 4100 3525 3541 
Q 3525 3141 3298 2862 
Q 3072 2584 2669 2484 
Q 3125 2378 3379 2068 
Q 3634 1759 3634 1313 
Q 3634 634 3220 271 
Q 2806 -91 2034 -91 
Q 1263 -91 848 271 
Q 434 634 434 1313 
Q 434 1759 690 2068 
Q 947 2378 1403 2484 
z
M 1172 3481 
Q 1172 3119 1398 2916 
Q 1625 2713 2034 2713 
Q 2441 2713 2670 2916 
Q 2900 3119 2900 3481 
Q 2900 3844 2670 4047 
Q 2441 4250 2034 4250 
Q 1625 4250 1398 4047 
Q 1172 3844 1172 3481 
z
" transform="scale(0.015625)"/>
       </defs>
       <use xlink:href="#DejaVuSans-30"/>
       <use xlink:href="#DejaVuSans-2e" x="63.623047"/>
       <use xlink:href="#DejaVuSans-38" x="95.410156"/>
       <use xlink:href="#DejaVuSans-30" x="159.033203"/>
      </g>
     </g>
    </g>
    <g id="ytick_2">
     <g id="line2d_9">
      <path d="M 75.35 102.3604 
L 470.86 102.3604 
" clip-path="url(#p275b87c454)" style="fill: none; stroke: #b0b0b0; stroke-width: 0.8; stroke-linecap: square"/>
     </g>
     <g id="line2d_10">
      <g>
       <use xlink:href="#m45b52268f9" x="75.35" y="102.3604" style="stroke: #000000; stroke-width: 0.8"/>
      </g>
     </g>
     <g id="text_2">
      <!-- 0.91 -->
      <g transform="translate(34.951563 108.059228)scale(0.15 -0.15)">
       <defs>
        <path id="DejaVuSans-39" d="M 703 97 
L 703 672 
Q 941 559 1184 500 
Q 1428 441 1663 441 
Q 2288 441 2617 861 
Q 2947 1281 2994 2138 
Q 2813 1869 2534 1725 
Q 2256 1581 1919 1581 
Q 1219 1581 811 2004 
Q 403 2428 403 3163 
Q 403 3881 828 4315 
Q 1253 4750 1959 4750 
Q 2769 4750 3195 4129 
Q 3622 3509 3622 2328 
Q 3622 1225 3098 567 
Q 2575 -91 1691 -91 
Q 1453 -91 1209 -44 
Q 966 3 703 97 
z
M 1959 2075 
Q 2384 2075 2632 2365 
Q 2881 2656 2881 3163 
Q 2881 3666 2632 3958 
Q 2384 4250 1959 4250 
Q 1534 4250 1286 3958 
Q 1038 3666 1038 3163 
Q 1038 2656 1286 2365 
Q 1534 2075 1959 2075 
z
" transform="scale(0.015625)"/>
        <path id="DejaVuSans-31" d="M 794 531 
L 1825 531 
L 1825 4091 
L 703 3866 
L 703 4441 
L 1819 4666 
L 2450 4666 
L 2450 531 
L 3481 531 
L 3481 0 
L 794 0 
L 794 531 
z
" transform="scale(0.015625)"/>
       </defs>
       <use xlink:href="#DejaVuSans-30"/>
       <use xlink:href="#DejaVuSans-2e" x="63.623047"/>
       <use xlink:href="#DejaVuSans-39" x="95.410156"/>
       <use xlink:href="#DejaVuSans-31" x="159.033203"/>
      </g>
     </g>
    </g>
    <g id="ytick_3">
     <g id="line2d_11">
      <path d="M 75.35 47.203 
L 470.86 47.203 
" clip-path="url(#p275b87c454)" style="fill: none; stroke: #b0b0b0; stroke-width: 0.8; stroke-linecap: square"/>
     </g>
     <g id="line2d_12">
      <g>
       <use xlink:href="#m45b52268f9" x="75.35" y="47.203" style="stroke: #000000; stroke-width: 0.8"/>
      </g>
     </g>
     <g id="text_3">
      <!-- 1.00 -->
      <g transform="translate(34.951563 52.901828)scale(0.15 -0.15)">
       <use xlink:href="#DejaVuSans-31"/>
       <use xlink:href="#DejaVuSans-2e" x="63.623047"/>
       <use xlink:href="#DejaVuSans-30" x="95.410156"/>
       <use xlink:href="#DejaVuSans-30" x="159.033203"/>
      </g>
     </g>
    </g>
    <g id="text_4">
     <!-- F1-score -->
     <g transform="translate(26.792188 135.755)rotate(-90)scale(0.2 -0.2)">
      <defs>
       <path id="DejaVuSans-46" d="M 628 4666 
L 3309 4666 
L 3309 4134 
L 1259 4134 
L 1259 2759 
L 3109 2759 
L 3109 2228 
L 1259 2228 
L 1259 0 
L 628 0 
L 628 4666 
z
" transform="scale(0.015625)"/>
       <path id="DejaVuSans-2d" d="M 313 2009 
L 1997 2009 
L 1997 1497 
L 313 1497 
L 313 2009 
z
" transform="scale(0.015625)"/>
       <path id="DejaVuSans-73" d="M 2834 3397 
L 2834 2853 
Q 2591 2978 2328 3040 
Q 2066 3103 1784 3103 
Q 1356 3103 1142 2972 
Q 928 2841 928 2578 
Q 928 2378 1081 2264 
Q 1234 2150 1697 2047 
L 1894 2003 
Q 2506 1872 2764 1633 
Q 3022 1394 3022 966 
Q 3022 478 2636 193 
Q 2250 -91 1575 -91 
Q 1294 -91 989 -36 
Q 684 19 347 128 
L 347 722 
Q 666 556 975 473 
Q 1284 391 1588 391 
Q 1994 391 2212 530 
Q 2431 669 2431 922 
Q 2431 1156 2273 1281 
Q 2116 1406 1581 1522 
L 1381 1569 
Q 847 1681 609 1914 
Q 372 2147 372 2553 
Q 372 3047 722 3315 
Q 1072 3584 1716 3584 
Q 2034 3584 2315 3537 
Q 2597 3491 2834 3397 
z
" transform="scale(0.015625)"/>
       <path id="DejaVuSans-63" d="M 3122 3366 
L 3122 2828 
Q 2878 2963 2633 3030 
Q 2388 3097 2138 3097 
Q 1578 3097 1268 2742 
Q 959 2388 959 1747 
Q 959 1106 1268 751 
Q 1578 397 2138 397 
Q 2388 397 2633 464 
Q 2878 531 3122 666 
L 3122 134 
Q 2881 22 2623 -34 
Q 2366 -91 2075 -91 
Q 1284 -91 818 406 
Q 353 903 353 1747 
Q 353 2603 823 3093 
Q 1294 3584 2113 3584 
Q 2378 3584 2631 3529 
Q 2884 3475 3122 3366 
z
" transform="scale(0.015625)"/>
       <path id="DejaVuSans-6f" d="M 1959 3097 
Q 1497 3097 1228 2736 
Q 959 2375 959 1747 
Q 959 1119 1226 758 
Q 1494 397 1959 397 
Q 2419 397 2687 759 
Q 2956 1122 2956 1747 
Q 2956 2369 2687 2733 
Q 2419 3097 1959 3097 
z
M 1959 3584 
Q 2709 3584 3137 3096 
Q 3566 2609 3566 1747 
Q 3566 888 3137 398 
Q 2709 -91 1959 -91 
Q 1206 -91 779 398 
Q 353 888 353 1747 
Q 353 2609 779 3096 
Q 1206 3584 1959 3584 
z
" transform="scale(0.015625)"/>
       <path id="DejaVuSans-72" d="M 2631 2963 
Q 2534 3019 2420 3045 
Q 2306 3072 2169 3072 
Q 1681 3072 1420 2755 
Q 1159 2438 1159 1844 
L 1159 0 
L 581 0 
L 581 3500 
L 1159 3500 
L 1159 2956 
Q 1341 3275 1631 3429 
Q 1922 3584 2338 3584 
Q 2397 3584 2469 3576 
Q 2541 3569 2628 3553 
L 2631 2963 
z
" transform="scale(0.015625)"/>
       <path id="DejaVuSans-65" d="M 3597 1894 
L 3597 1613 
L 953 1613 
Q 991 1019 1311 708 
Q 1631 397 2203 397 
Q 2534 397 2845 478 
Q 3156 559 3463 722 
L 3463 178 
Q 3153 47 2828 -22 
Q 2503 -91 2169 -91 
Q 1331 -91 842 396 
Q 353 884 353 1716 
Q 353 2575 817 3079 
Q 1281 3584 2069 3584 
Q 2775 3584 3186 3129 
Q 3597 2675 3597 1894 
z
M 3022 2063 
Q 3016 2534 2758 2815 
Q 2500 3097 2075 3097 
Q 1594 3097 1305 2825 
Q 1016 2553 972 2059 
L 3022 2063 
z
" transform="scale(0.015625)"/>
      </defs>
      <use xlink:href="#DejaVuSans-46"/>
      <use xlink:href="#DejaVuSans-31" x="57.519531"/>
      <use xlink:href="#DejaVuSans-2d" x="121.142578"/>
      <use xlink:href="#DejaVuSans-73" x="157.226562"/>
      <use xlink:href="#DejaVuSans-63" x="209.326172"/>
      <use xlink:href="#DejaVuSans-6f" x="264.306641"/>
      <use xlink:href="#DejaVuSans-72" x="325.488281"/>
      <use xlink:href="#DejaVuSans-65" x="364.351562"/>
     </g>
    </g>
   </g>
   <g id="line2d_13">
    <path d="M 75.35 102.3604 
L 470.86 102.3604 
" clip-path="url(#p275b87c454)" style="fill: none; stroke-dasharray: 5.55,2.4; stroke-dashoffset: 0; stroke: #779de9; stroke-width: 1.5"/>
   </g>
   <g id="patch_3">
    <path d="M 75.35 169.775 
L 75.35 16.56 
" style="fill: none; stroke: #000000; stroke-width: 0.8; stroke-linejoin: miter; stroke-linecap: square"/>
   </g>
   <g id="patch_4">
    <path d="M 470.86 169.775 
L 470.86 16.56 
" style="fill: none; stroke: #000000; stroke-width: 0.8; stroke-linejoin: miter; stroke-linecap: square"/>
   </g>
   <g id="patch_5">
    <path d="M 75.35 16.56 
L 470.86 16.56 
" style="fill: none; stroke: #000000; stroke-width: 0.8; stroke-linejoin: miter; stroke-linecap: square"/>
   </g>
   <g id="legend_1">
    <g id="patch_6">
     <path d="M 89.35 60.850625 
L 327.15625 60.850625 
Q 331.15625 60.850625 331.15625 56.850625 
L 331.15625 30.56 
Q 331.15625 26.56 327.15625 26.56 
L 89.35 26.56 
Q 85.35 26.56 85.35 30.56 
L 85.35 56.850625 
Q 85.35 60.850625 89.35 60.850625 
z
" style="fill: #ffffff; opacity: 0.8; stroke: #cccccc; stroke-linejoin: miter"/>
    </g>
    <g id="line2d_14">
     <path d="M 93.35 41.875625 
L 103.35 41.875625 
L 113.35 41.875625 
" style="fill: none; stroke: #ea5455; stroke-width: 1.5; stroke-linecap: square"/>
     <defs>
      <path id="mbc7791ec01" d="M 0 3 
C 0.795609 3 1.55874 2.683901 2.12132 2.12132 
C 2.683901 1.55874 3 0.795609 3 0 
C 3 -0.795609 2.683901 -1.55874 2.12132 -2.12132 
C 1.55874 -2.683901 0.795609 -3 0 -3 
C -0.795609 -3 -1.55874 -2.683901 -2.12132 -2.12132 
C -2.683901 -1.55874 -3 -0.795609 -3 0 
C -3 0.795609 -2.683901 1.55874 -2.12132 2.12132 
C -1.55874 2.683901 -0.795609 3 0 3 
z
" style="stroke: #ea5455; stroke-width: 0.01"/>
     </defs>
     <g>
      <use xlink:href="#mbc7791ec01" x="103.35" y="41.875625" style="fill: #ea5455; stroke: #ea5455; stroke-width: 0.01"/>
     </g>
    </g>
    <g id="text_5">
     <!-- F1-score -->
     <g transform="translate(129.35 48.875625)scale(0.2 -0.2)">
      <defs>
       <path id="ArialMT-46" d="M 525 0 
L 525 4581 
L 3616 4581 
L 3616 4041 
L 1131 4041 
L 1131 2622 
L 3281 2622 
L 3281 2081 
L 1131 2081 
L 1131 0 
L 525 0 
z
" transform="scale(0.015625)"/>
       <path id="ArialMT-31" d="M 2384 0 
L 1822 0 
L 1822 3584 
Q 1619 3391 1289 3197 
Q 959 3003 697 2906 
L 697 3450 
Q 1169 3672 1522 3987 
Q 1875 4303 2022 4600 
L 2384 4600 
L 2384 0 
z
" transform="scale(0.015625)"/>
       <path id="ArialMT-2d" d="M 203 1375 
L 203 1941 
L 1931 1941 
L 1931 1375 
L 203 1375 
z
" transform="scale(0.015625)"/>
       <path id="ArialMT-73" d="M 197 991 
L 753 1078 
Q 800 744 1014 566 
Q 1228 388 1613 388 
Q 2000 388 2187 545 
Q 2375 703 2375 916 
Q 2375 1106 2209 1216 
Q 2094 1291 1634 1406 
Q 1016 1563 777 1677 
Q 538 1791 414 1992 
Q 291 2194 291 2438 
Q 291 2659 392 2848 
Q 494 3038 669 3163 
Q 800 3259 1026 3326 
Q 1253 3394 1513 3394 
Q 1903 3394 2198 3281 
Q 2494 3169 2634 2976 
Q 2775 2784 2828 2463 
L 2278 2388 
Q 2241 2644 2061 2787 
Q 1881 2931 1553 2931 
Q 1166 2931 1000 2803 
Q 834 2675 834 2503 
Q 834 2394 903 2306 
Q 972 2216 1119 2156 
Q 1203 2125 1616 2013 
Q 2213 1853 2448 1751 
Q 2684 1650 2818 1456 
Q 2953 1263 2953 975 
Q 2953 694 2789 445 
Q 2625 197 2315 61 
Q 2006 -75 1616 -75 
Q 969 -75 630 194 
Q 291 463 197 991 
z
" transform="scale(0.015625)"/>
       <path id="ArialMT-63" d="M 2588 1216 
L 3141 1144 
Q 3050 572 2676 248 
Q 2303 -75 1759 -75 
Q 1078 -75 664 370 
Q 250 816 250 1647 
Q 250 2184 428 2587 
Q 606 2991 970 3192 
Q 1334 3394 1763 3394 
Q 2303 3394 2647 3120 
Q 2991 2847 3088 2344 
L 2541 2259 
Q 2463 2594 2264 2762 
Q 2066 2931 1784 2931 
Q 1359 2931 1093 2626 
Q 828 2322 828 1663 
Q 828 994 1084 691 
Q 1341 388 1753 388 
Q 2084 388 2306 591 
Q 2528 794 2588 1216 
z
" transform="scale(0.015625)"/>
       <path id="ArialMT-6f" d="M 213 1659 
Q 213 2581 725 3025 
Q 1153 3394 1769 3394 
Q 2453 3394 2887 2945 
Q 3322 2497 3322 1706 
Q 3322 1066 3130 698 
Q 2938 331 2570 128 
Q 2203 -75 1769 -75 
Q 1072 -75 642 372 
Q 213 819 213 1659 
z
M 791 1659 
Q 791 1022 1069 705 
Q 1347 388 1769 388 
Q 2188 388 2466 706 
Q 2744 1025 2744 1678 
Q 2744 2294 2464 2611 
Q 2184 2928 1769 2928 
Q 1347 2928 1069 2612 
Q 791 2297 791 1659 
z
" transform="scale(0.015625)"/>
       <path id="ArialMT-72" d="M 416 0 
L 416 3319 
L 922 3319 
L 922 2816 
Q 1116 3169 1280 3281 
Q 1444 3394 1641 3394 
Q 1925 3394 2219 3213 
L 2025 2691 
Q 1819 2813 1613 2813 
Q 1428 2813 1281 2702 
Q 1134 2591 1072 2394 
Q 978 2094 978 1738 
L 978 0 
L 416 0 
z
" transform="scale(0.015625)"/>
       <path id="ArialMT-65" d="M 2694 1069 
L 3275 997 
Q 3138 488 2766 206 
Q 2394 -75 1816 -75 
Q 1088 -75 661 373 
Q 234 822 234 1631 
Q 234 2469 665 2931 
Q 1097 3394 1784 3394 
Q 2450 3394 2872 2941 
Q 3294 2488 3294 1666 
Q 3294 1616 3291 1516 
L 816 1516 
Q 847 969 1125 678 
Q 1403 388 1819 388 
Q 2128 388 2347 550 
Q 2566 713 2694 1069 
z
M 847 1978 
L 2700 1978 
Q 2663 2397 2488 2606 
Q 2219 2931 1791 2931 
Q 1403 2931 1139 2672 
Q 875 2413 847 1978 
z
" transform="scale(0.015625)"/>
      </defs>
      <use xlink:href="#ArialMT-46"/>
      <use xlink:href="#ArialMT-31" x="61.083984"/>
      <use xlink:href="#ArialMT-2d" x="116.699219"/>
      <use xlink:href="#ArialMT-73" x="150"/>
      <use xlink:href="#ArialMT-63" x="200"/>
      <use xlink:href="#ArialMT-6f" x="250"/>
      <use xlink:href="#ArialMT-72" x="305.615234"/>
      <use xlink:href="#ArialMT-65" x="338.916016"/>
     </g>
    </g>
    <g id="line2d_15">
     <path d="M 248.25 41.875625 
L 258.25 41.875625 
L 268.25 41.875625 
" style="fill: none; stroke: #2d4059; stroke-width: 1.5; stroke-linecap: square"/>
     <defs>
      <path id="mb69bde06cd" d="M -3 3 
L 3 3 
L 3 -3 
L -3 -3 
z
" style="stroke: #2d4059; stroke-width: 0.1; stroke-linejoin: miter"/>
     </defs>
     <g>
      <use xlink:href="#mb69bde06cd" x="258.25" y="41.875625" style="fill: #2d4059; stroke: #2d4059; stroke-width: 0.1; stroke-linejoin: miter"/>
     </g>
    </g>
    <g id="text_6">
     <!-- Size -->
     <g transform="translate(284.25 48.875625)scale(0.2 -0.2)">
      <defs>
       <path id="ArialMT-53" d="M 288 1472 
L 859 1522 
Q 900 1178 1048 958 
Q 1197 738 1509 602 
Q 1822 466 2213 466 
Q 2559 466 2825 569 
Q 3091 672 3220 851 
Q 3350 1031 3350 1244 
Q 3350 1459 3225 1620 
Q 3100 1781 2813 1891 
Q 2628 1963 1997 2114 
Q 1366 2266 1113 2400 
Q 784 2572 623 2826 
Q 463 3081 463 3397 
Q 463 3744 659 4045 
Q 856 4347 1234 4503 
Q 1613 4659 2075 4659 
Q 2584 4659 2973 4495 
Q 3363 4331 3572 4012 
Q 3781 3694 3797 3291 
L 3216 3247 
Q 3169 3681 2898 3903 
Q 2628 4125 2100 4125 
Q 1550 4125 1298 3923 
Q 1047 3722 1047 3438 
Q 1047 3191 1225 3031 
Q 1400 2872 2139 2705 
Q 2878 2538 3153 2413 
Q 3553 2228 3743 1945 
Q 3934 1663 3934 1294 
Q 3934 928 3725 604 
Q 3516 281 3123 101 
Q 2731 -78 2241 -78 
Q 1619 -78 1198 103 
Q 778 284 539 648 
Q 300 1013 288 1472 
z
" transform="scale(0.015625)"/>
       <path id="ArialMT-69" d="M 425 3934 
L 425 4581 
L 988 4581 
L 988 3934 
L 425 3934 
z
M 425 0 
L 425 3319 
L 988 3319 
L 988 0 
L 425 0 
z
" transform="scale(0.015625)"/>
       <path id="ArialMT-7a" d="M 125 0 
L 125 456 
L 2238 2881 
Q 1878 2863 1603 2863 
L 250 2863 
L 250 3319 
L 2963 3319 
L 2963 2947 
L 1166 841 
L 819 456 
Q 1197 484 1528 484 
L 3063 484 
L 3063 0 
L 125 0 
z
" transform="scale(0.015625)"/>
      </defs>
      <use xlink:href="#ArialMT-53"/>
      <use xlink:href="#ArialMT-69" x="66.699219"/>
      <use xlink:href="#ArialMT-7a" x="88.916016"/>
      <use xlink:href="#ArialMT-65" x="138.916016"/>
     </g>
    </g>
   </g>
   <g id="line2d_16">
    <path d="M 75.35 378.074881 
L 114.901 142.792782 
L 154.452 115.948046 
L 194.003 107.632109 
L 233.554 102.091334 
L 273.105 97.480306 
L 312.656 95.256069 
L 352.207 92.149255 
L 391.758 88.221586 
L 431.309 85.631523 
L 470.86 83.863524 
" clip-path="url(#p275b87c454)" style="fill: none; stroke: #ea5455; stroke-width: 1.5; stroke-linecap: square"/>
    <g clip-path="url(#p275b87c454)">
     <use xlink:href="#mbc7791ec01" x="75.35" y="378.074881" style="fill: #ea5455; stroke: #ea5455; stroke-width: 0.01"/>
     <use xlink:href="#mbc7791ec01" x="114.901" y="142.792782" style="fill: #ea5455; stroke: #ea5455; stroke-width: 0.01"/>
     <use xlink:href="#mbc7791ec01" x="154.452" y="115.948046" style="fill: #ea5455; stroke: #ea5455; stroke-width: 0.01"/>
     <use xlink:href="#mbc7791ec01" x="194.003" y="107.632109" style="fill: #ea5455; stroke: #ea5455; stroke-width: 0.01"/>
     <use xlink:href="#mbc7791ec01" x="233.554" y="102.091334" style="fill: #ea5455; stroke: #ea5455; stroke-width: 0.01"/>
     <use xlink:href="#mbc7791ec01" x="273.105" y="97.480306" style="fill: #ea5455; stroke: #ea5455; stroke-width: 0.01"/>
     <use xlink:href="#mbc7791ec01" x="312.656" y="95.256069" style="fill: #ea5455; stroke: #ea5455; stroke-width: 0.01"/>
     <use xlink:href="#mbc7791ec01" x="352.207" y="92.149255" style="fill: #ea5455; stroke: #ea5455; stroke-width: 0.01"/>
     <use xlink:href="#mbc7791ec01" x="391.758" y="88.221586" style="fill: #ea5455; stroke: #ea5455; stroke-width: 0.01"/>
     <use xlink:href="#mbc7791ec01" x="431.309" y="85.631523" style="fill: #ea5455; stroke: #ea5455; stroke-width: 0.01"/>
     <use xlink:href="#mbc7791ec01" x="470.86" y="83.863524" style="fill: #ea5455; stroke: #ea5455; stroke-width: 0.01"/>
    </g>
   </g>
  </g>
  <g id="axes_2">
   <g id="patch_7">
    <path d="M 75.35 348.19 
L 470.86 348.19 
L 470.86 194.975 
L 75.35 194.975 
z
" style="fill: #ffffff"/>
   </g>
   <g id="matplotlib.axis_3">
    <g id="xtick_7">
     <g id="line2d_17">
      <defs>
       <path id="mf8fc86d1e6" d="M 0 0 
L 0 3.5 
" style="stroke: #000000; stroke-width: 0.8"/>
      </defs>
      <g>
       <use xlink:href="#mf8fc86d1e6" x="75.35" y="348.19" style="stroke: #000000; stroke-width: 0.8"/>
      </g>
     </g>
     <g id="text_7">
      <!-- 0 -->
      <g transform="translate(70.578125 366.587656)scale(0.15 -0.15)">
       <use xlink:href="#DejaVuSans-30"/>
      </g>
     </g>
    </g>
    <g id="xtick_8">
     <g id="line2d_18">
      <g>
       <use xlink:href="#mf8fc86d1e6" x="154.452" y="348.19" style="stroke: #000000; stroke-width: 0.8"/>
      </g>
     </g>
     <g id="text_8">
      <!-- 20 -->
      <g transform="translate(144.90825 366.587656)scale(0.15 -0.15)">
       <defs>
        <path id="DejaVuSans-32" d="M 1228 531 
L 3431 531 
L 3431 0 
L 469 0 
L 469 531 
Q 828 903 1448 1529 
Q 2069 2156 2228 2338 
Q 2531 2678 2651 2914 
Q 2772 3150 2772 3378 
Q 2772 3750 2511 3984 
Q 2250 4219 1831 4219 
Q 1534 4219 1204 4116 
Q 875 4013 500 3803 
L 500 4441 
Q 881 4594 1212 4672 
Q 1544 4750 1819 4750 
Q 2544 4750 2975 4387 
Q 3406 4025 3406 3419 
Q 3406 3131 3298 2873 
Q 3191 2616 2906 2266 
Q 2828 2175 2409 1742 
Q 1991 1309 1228 531 
z
" transform="scale(0.015625)"/>
       </defs>
       <use xlink:href="#DejaVuSans-32"/>
       <use xlink:href="#DejaVuSans-30" x="63.623047"/>
      </g>
     </g>
    </g>
    <g id="xtick_9">
     <g id="line2d_19">
      <g>
       <use xlink:href="#mf8fc86d1e6" x="233.554" y="348.19" style="stroke: #000000; stroke-width: 0.8"/>
      </g>
     </g>
     <g id="text_9">
      <!-- 40 -->
      <g transform="translate(224.01025 366.587656)scale(0.15 -0.15)">
       <defs>
        <path id="DejaVuSans-34" d="M 2419 4116 
L 825 1625 
L 2419 1625 
L 2419 4116 
z
M 2253 4666 
L 3047 4666 
L 3047 1625 
L 3713 1625 
L 3713 1100 
L 3047 1100 
L 3047 0 
L 2419 0 
L 2419 1100 
L 313 1100 
L 313 1709 
L 2253 4666 
z
" transform="scale(0.015625)"/>
       </defs>
       <use xlink:href="#DejaVuSans-34"/>
       <use xlink:href="#DejaVuSans-30" x="63.623047"/>
      </g>
     </g>
    </g>
    <g id="xtick_10">
     <g id="line2d_20">
      <g>
       <use xlink:href="#mf8fc86d1e6" x="312.656" y="348.19" style="stroke: #000000; stroke-width: 0.8"/>
      </g>
     </g>
     <g id="text_10">
      <!-- 60 -->
      <g transform="translate(303.11225 366.587656)scale(0.15 -0.15)">
       <defs>
        <path id="DejaVuSans-36" d="M 2113 2584 
Q 1688 2584 1439 2293 
Q 1191 2003 1191 1497 
Q 1191 994 1439 701 
Q 1688 409 2113 409 
Q 2538 409 2786 701 
Q 3034 994 3034 1497 
Q 3034 2003 2786 2293 
Q 2538 2584 2113 2584 
z
M 3366 4563 
L 3366 3988 
Q 3128 4100 2886 4159 
Q 2644 4219 2406 4219 
Q 1781 4219 1451 3797 
Q 1122 3375 1075 2522 
Q 1259 2794 1537 2939 
Q 1816 3084 2150 3084 
Q 2853 3084 3261 2657 
Q 3669 2231 3669 1497 
Q 3669 778 3244 343 
Q 2819 -91 2113 -91 
Q 1303 -91 875 529 
Q 447 1150 447 2328 
Q 447 3434 972 4092 
Q 1497 4750 2381 4750 
Q 2619 4750 2861 4703 
Q 3103 4656 3366 4563 
z
" transform="scale(0.015625)"/>
       </defs>
       <use xlink:href="#DejaVuSans-36"/>
       <use xlink:href="#DejaVuSans-30" x="63.623047"/>
      </g>
     </g>
    </g>
    <g id="xtick_11">
     <g id="line2d_21">
      <g>
       <use xlink:href="#mf8fc86d1e6" x="391.758" y="348.19" style="stroke: #000000; stroke-width: 0.8"/>
      </g>
     </g>
     <g id="text_11">
      <!-- 80 -->
      <g transform="translate(382.21425 366.587656)scale(0.15 -0.15)">
       <use xlink:href="#DejaVuSans-38"/>
       <use xlink:href="#DejaVuSans-30" x="63.623047"/>
      </g>
     </g>
    </g>
    <g id="xtick_12">
     <g id="line2d_22">
      <g>
       <use xlink:href="#mf8fc86d1e6" x="470.86" y="348.19" style="stroke: #000000; stroke-width: 0.8"/>
      </g>
     </g>
     <g id="text_12">
      <!-- 100 -->
      <g transform="translate(456.544375 366.587656)scale(0.15 -0.15)">
       <use xlink:href="#DejaVuSans-31"/>
       <use xlink:href="#DejaVuSans-30" x="63.623047"/>
       <use xlink:href="#DejaVuSans-30" x="127.246094"/>
      </g>
     </g>
    </g>
    <g id="text_13">
     <!-- Quality -->
     <g transform="translate(241.983125 388.279062)scale(0.2 -0.2)">
      <defs>
       <path id="ArialMT-51" d="M 3966 491 
Q 4388 200 4744 66 
L 4566 -356 
Q 4072 -178 3581 206 
Q 3072 -78 2456 -78 
Q 1834 -78 1328 222 
Q 822 522 548 1065 
Q 275 1609 275 2291 
Q 275 2969 550 3525 
Q 825 4081 1333 4372 
Q 1841 4663 2469 4663 
Q 3103 4663 3612 4361 
Q 4122 4059 4389 3517 
Q 4656 2975 4656 2294 
Q 4656 1728 4484 1276 
Q 4313 825 3966 491 
z
M 2631 1266 
Q 3156 1119 3497 828 
Q 4031 1316 4031 2294 
Q 4031 2850 3842 3265 
Q 3653 3681 3289 3911 
Q 2925 4141 2472 4141 
Q 1794 4141 1347 3677 
Q 900 3213 900 2291 
Q 900 1397 1342 919 
Q 1784 441 2472 441 
Q 2797 441 3084 563 
Q 2800 747 2484 825 
L 2631 1266 
z
" transform="scale(0.015625)"/>
       <path id="ArialMT-75" d="M 2597 0 
L 2597 488 
Q 2209 -75 1544 -75 
Q 1250 -75 995 37 
Q 741 150 617 320 
Q 494 491 444 738 
Q 409 903 409 1263 
L 409 3319 
L 972 3319 
L 972 1478 
Q 972 1038 1006 884 
Q 1059 663 1231 536 
Q 1403 409 1656 409 
Q 1909 409 2131 539 
Q 2353 669 2445 892 
Q 2538 1116 2538 1541 
L 2538 3319 
L 3100 3319 
L 3100 0 
L 2597 0 
z
" transform="scale(0.015625)"/>
       <path id="ArialMT-61" d="M 2588 409 
Q 2275 144 1986 34 
Q 1697 -75 1366 -75 
Q 819 -75 525 192 
Q 231 459 231 875 
Q 231 1119 342 1320 
Q 453 1522 633 1644 
Q 813 1766 1038 1828 
Q 1203 1872 1538 1913 
Q 2219 1994 2541 2106 
Q 2544 2222 2544 2253 
Q 2544 2597 2384 2738 
Q 2169 2928 1744 2928 
Q 1347 2928 1158 2789 
Q 969 2650 878 2297 
L 328 2372 
Q 403 2725 575 2942 
Q 747 3159 1072 3276 
Q 1397 3394 1825 3394 
Q 2250 3394 2515 3294 
Q 2781 3194 2906 3042 
Q 3031 2891 3081 2659 
Q 3109 2516 3109 2141 
L 3109 1391 
Q 3109 606 3145 398 
Q 3181 191 3288 0 
L 2700 0 
Q 2613 175 2588 409 
z
M 2541 1666 
Q 2234 1541 1622 1453 
Q 1275 1403 1131 1340 
Q 988 1278 909 1158 
Q 831 1038 831 891 
Q 831 666 1001 516 
Q 1172 366 1500 366 
Q 1825 366 2078 508 
Q 2331 650 2450 897 
Q 2541 1088 2541 1459 
L 2541 1666 
z
" transform="scale(0.015625)"/>
       <path id="ArialMT-6c" d="M 409 0 
L 409 4581 
L 972 4581 
L 972 0 
L 409 0 
z
" transform="scale(0.015625)"/>
       <path id="ArialMT-74" d="M 1650 503 
L 1731 6 
Q 1494 -44 1306 -44 
Q 1000 -44 831 53 
Q 663 150 594 308 
Q 525 466 525 972 
L 525 2881 
L 113 2881 
L 113 3319 
L 525 3319 
L 525 4141 
L 1084 4478 
L 1084 3319 
L 1650 3319 
L 1650 2881 
L 1084 2881 
L 1084 941 
Q 1084 700 1114 631 
Q 1144 563 1211 522 
Q 1278 481 1403 481 
Q 1497 481 1650 503 
z
" transform="scale(0.015625)"/>
       <path id="ArialMT-79" d="M 397 -1278 
L 334 -750 
Q 519 -800 656 -800 
Q 844 -800 956 -737 
Q 1069 -675 1141 -563 
Q 1194 -478 1313 -144 
Q 1328 -97 1363 -6 
L 103 3319 
L 709 3319 
L 1400 1397 
Q 1534 1031 1641 628 
Q 1738 1016 1872 1384 
L 2581 3319 
L 3144 3319 
L 1881 -56 
Q 1678 -603 1566 -809 
Q 1416 -1088 1222 -1217 
Q 1028 -1347 759 -1347 
Q 597 -1347 397 -1278 
z
" transform="scale(0.015625)"/>
      </defs>
      <use xlink:href="#ArialMT-51"/>
      <use xlink:href="#ArialMT-75" x="77.783203"/>
      <use xlink:href="#ArialMT-61" x="133.398438"/>
      <use xlink:href="#ArialMT-6c" x="189.013672"/>
      <use xlink:href="#ArialMT-69" x="211.230469"/>
      <use xlink:href="#ArialMT-74" x="233.447266"/>
      <use xlink:href="#ArialMT-79" x="261.230469"/>
     </g>
    </g>
   </g>
   <g id="matplotlib.axis_4">
    <g id="ytick_4">
     <g id="line2d_23">
      <path d="M 75.35 348.19 
L 470.86 348.19 
" clip-path="url(#pa85d9332b3)" style="fill: none; stroke: #b0b0b0; stroke-width: 0.8; stroke-linecap: square"/>
     </g>
     <g id="line2d_24">
      <g>
       <use xlink:href="#m45b52268f9" x="75.35" y="348.19" style="stroke: #000000; stroke-width: 0.8"/>
      </g>
     </g>
     <g id="text_14">
      <!-- 0 -->
      <g transform="translate(58.80625 353.888828)scale(0.15 -0.15)">
       <use xlink:href="#DejaVuSans-30"/>
      </g>
     </g>
    </g>
    <g id="ytick_5">
     <g id="line2d_25">
      <path d="M 75.35 297.118333 
L 470.86 297.118333 
" clip-path="url(#pa85d9332b3)" style="fill: none; stroke: #b0b0b0; stroke-width: 0.8; stroke-linecap: square"/>
     </g>
     <g id="line2d_26">
      <g>
       <use xlink:href="#m45b52268f9" x="75.35" y="297.118333" style="stroke: #000000; stroke-width: 0.8"/>
      </g>
     </g>
     <g id="text_15">
      <!-- 100 -->
      <g transform="translate(39.71875 302.817161)scale(0.15 -0.15)">
       <use xlink:href="#DejaVuSans-31"/>
       <use xlink:href="#DejaVuSans-30" x="63.623047"/>
       <use xlink:href="#DejaVuSans-30" x="127.246094"/>
      </g>
     </g>
    </g>
    <g id="ytick_6">
     <g id="line2d_27">
      <path d="M 75.35 246.046667 
L 470.86 246.046667 
" clip-path="url(#pa85d9332b3)" style="fill: none; stroke: #b0b0b0; stroke-width: 0.8; stroke-linecap: square"/>
     </g>
     <g id="line2d_28">
      <g>
       <use xlink:href="#m45b52268f9" x="75.35" y="246.046667" style="stroke: #000000; stroke-width: 0.8"/>
      </g>
     </g>
     <g id="text_16">
      <!-- 200 -->
      <g transform="translate(39.71875 251.745495)scale(0.15 -0.15)">
       <use xlink:href="#DejaVuSans-32"/>
       <use xlink:href="#DejaVuSans-30" x="63.623047"/>
       <use xlink:href="#DejaVuSans-30" x="127.246094"/>
      </g>
     </g>
    </g>
    <g id="ytick_7">
     <g id="line2d_29">
      <path d="M 75.35 194.975 
L 470.86 194.975 
" clip-path="url(#pa85d9332b3)" style="fill: none; stroke: #b0b0b0; stroke-width: 0.8; stroke-linecap: square"/>
     </g>
     <g id="line2d_30">
      <g>
       <use xlink:href="#m45b52268f9" x="75.35" y="194.975" style="stroke: #000000; stroke-width: 0.8"/>
      </g>
     </g>
     <g id="text_17">
      <!-- 300 -->
      <g transform="translate(39.71875 200.673828)scale(0.15 -0.15)">
       <defs>
        <path id="DejaVuSans-33" d="M 2597 2516 
Q 3050 2419 3304 2112 
Q 3559 1806 3559 1356 
Q 3559 666 3084 287 
Q 2609 -91 1734 -91 
Q 1441 -91 1130 -33 
Q 819 25 488 141 
L 488 750 
Q 750 597 1062 519 
Q 1375 441 1716 441 
Q 2309 441 2620 675 
Q 2931 909 2931 1356 
Q 2931 1769 2642 2001 
Q 2353 2234 1838 2234 
L 1294 2234 
L 1294 2753 
L 1863 2753 
Q 2328 2753 2575 2939 
Q 2822 3125 2822 3475 
Q 2822 3834 2567 4026 
Q 2313 4219 1838 4219 
Q 1578 4219 1281 4162 
Q 984 4106 628 3988 
L 628 4550 
Q 988 4650 1302 4700 
Q 1616 4750 1894 4750 
Q 2613 4750 3031 4423 
Q 3450 4097 3450 3541 
Q 3450 3153 3228 2886 
Q 3006 2619 2597 2516 
z
" transform="scale(0.015625)"/>
       </defs>
       <use xlink:href="#DejaVuSans-33"/>
       <use xlink:href="#DejaVuSans-30" x="63.623047"/>
       <use xlink:href="#DejaVuSans-30" x="127.246094"/>
      </g>
     </g>
    </g>
    <g id="text_18">
     <!-- Latency(ms) -->
     <g transform="translate(31.509375 326.593437)rotate(-90)scale(0.2 -0.2)">
      <defs>
       <path id="ArialMT-4c" d="M 469 0 
L 469 4581 
L 1075 4581 
L 1075 541 
L 3331 541 
L 3331 0 
L 469 0 
z
" transform="scale(0.015625)"/>
       <path id="ArialMT-6e" d="M 422 0 
L 422 3319 
L 928 3319 
L 928 2847 
Q 1294 3394 1984 3394 
Q 2284 3394 2536 3286 
Q 2788 3178 2913 3003 
Q 3038 2828 3088 2588 
Q 3119 2431 3119 2041 
L 3119 0 
L 2556 0 
L 2556 2019 
Q 2556 2363 2490 2533 
Q 2425 2703 2258 2804 
Q 2091 2906 1866 2906 
Q 1506 2906 1245 2678 
Q 984 2450 984 1813 
L 984 0 
L 422 0 
z
" transform="scale(0.015625)"/>
       <path id="ArialMT-28" d="M 1497 -1347 
Q 1031 -759 709 28 
Q 388 816 388 1659 
Q 388 2403 628 3084 
Q 909 3875 1497 4659 
L 1900 4659 
Q 1522 4009 1400 3731 
Q 1209 3300 1100 2831 
Q 966 2247 966 1656 
Q 966 153 1900 -1347 
L 1497 -1347 
z
" transform="scale(0.015625)"/>
       <path id="ArialMT-6d" d="M 422 0 
L 422 3319 
L 925 3319 
L 925 2853 
Q 1081 3097 1340 3245 
Q 1600 3394 1931 3394 
Q 2300 3394 2536 3241 
Q 2772 3088 2869 2813 
Q 3263 3394 3894 3394 
Q 4388 3394 4653 3120 
Q 4919 2847 4919 2278 
L 4919 0 
L 4359 0 
L 4359 2091 
Q 4359 2428 4304 2576 
Q 4250 2725 4106 2815 
Q 3963 2906 3769 2906 
Q 3419 2906 3187 2673 
Q 2956 2441 2956 1928 
L 2956 0 
L 2394 0 
L 2394 2156 
Q 2394 2531 2256 2718 
Q 2119 2906 1806 2906 
Q 1569 2906 1367 2781 
Q 1166 2656 1075 2415 
Q 984 2175 984 1722 
L 984 0 
L 422 0 
z
" transform="scale(0.015625)"/>
       <path id="ArialMT-29" d="M 791 -1347 
L 388 -1347 
Q 1322 153 1322 1656 
Q 1322 2244 1188 2822 
Q 1081 3291 891 3722 
Q 769 4003 388 4659 
L 791 4659 
Q 1378 3875 1659 3084 
Q 1900 2403 1900 1659 
Q 1900 816 1576 28 
Q 1253 -759 791 -1347 
z
" transform="scale(0.015625)"/>
      </defs>
      <use xlink:href="#ArialMT-4c"/>
      <use xlink:href="#ArialMT-61" x="55.615234"/>
      <use xlink:href="#ArialMT-74" x="111.230469"/>
      <use xlink:href="#ArialMT-65" x="139.013672"/>
      <use xlink:href="#ArialMT-6e" x="194.628906"/>
      <use xlink:href="#ArialMT-63" x="250.244141"/>
      <use xlink:href="#ArialMT-79" x="300.244141"/>
      <use xlink:href="#ArialMT-28" x="350.244141"/>
      <use xlink:href="#ArialMT-6d" x="383.544922"/>
      <use xlink:href="#ArialMT-73" x="466.845703"/>
      <use xlink:href="#ArialMT-29" x="516.845703"/>
     </g>
    </g>
   </g>
   <g id="line2d_31">
    <path d="M 75.35 335.055945 
L 87.2153 329.618595 
L 99.0806 325.026137 
L 110.9459 321.050357 
L 122.8112 317.601581 
L 134.6765 314.429742 
L 146.5418 311.67776 
L 158.4071 308.975204 
L 170.2724 306.613978 
L 182.1377 304.276186 
L 194.003 301.831473 
L 205.8683 299.716892 
L 217.7336 297.740014 
L 229.5989 295.889711 
L 241.4642 294.128064 
L 253.3295 292.324301 
L 265.1948 291.107624 
L 277.0601 288.912578 
L 288.9254 286.965841 
L 300.7907 284.931758 
L 312.656 282.329057 
L 324.5213 279.830361 
L 336.3866 276.867538 
L 348.2519 273.562387 
L 360.1172 269.826527 
L 371.9825 264.153555 
L 383.8478 258.521433 
L 395.7131 251.280542 
L 407.5784 242.7588 
L 419.4437 228.808167 
L 431.309 209.914032 
L 443.1743 170.739663 
L 455.0396 82.559784 
" clip-path="url(#pa85d9332b3)" style="fill: none; stroke: #76ba99; stroke-width: 3; stroke-linecap: square"/>
    <defs>
     <path id="m4f009ff7b8" d="M 0 3 
C 0.795609 3 1.55874 2.683901 2.12132 2.12132 
C 2.683901 1.55874 3 0.795609 3 0 
C 3 -0.795609 2.683901 -1.55874 2.12132 -2.12132 
C 1.55874 -2.683901 0.795609 -3 0 -3 
C -0.795609 -3 -1.55874 -2.683901 -2.12132 -2.12132 
C -2.683901 -1.55874 -3 -0.795609 -3 0 
C -3 0.795609 -2.683901 1.55874 -2.12132 2.12132 
C -1.55874 2.683901 -0.795609 3 0 3 
z
" style="stroke: #76ba99; stroke-width: 0.01"/>
    </defs>
    <g clip-path="url(#pa85d9332b3)">
     <use xlink:href="#m4f009ff7b8" x="75.35" y="335.055945" style="fill: #76ba99; stroke: #76ba99; stroke-width: 0.01"/>
     <use xlink:href="#m4f009ff7b8" x="87.2153" y="329.618595" style="fill: #76ba99; stroke: #76ba99; stroke-width: 0.01"/>
     <use xlink:href="#m4f009ff7b8" x="99.0806" y="325.026137" style="fill: #76ba99; stroke: #76ba99; stroke-width: 0.01"/>
     <use xlink:href="#m4f009ff7b8" x="110.9459" y="321.050357" style="fill: #76ba99; stroke: #76ba99; stroke-width: 0.01"/>
     <use xlink:href="#m4f009ff7b8" x="122.8112" y="317.601581" style="fill: #76ba99; stroke: #76ba99; stroke-width: 0.01"/>
     <use xlink:href="#m4f009ff7b8" x="134.6765" y="314.429742" style="fill: #76ba99; stroke: #76ba99; stroke-width: 0.01"/>
     <use xlink:href="#m4f009ff7b8" x="146.5418" y="311.67776" style="fill: #76ba99; stroke: #76ba99; stroke-width: 0.01"/>
     <use xlink:href="#m4f009ff7b8" x="158.4071" y="308.975204" style="fill: #76ba99; stroke: #76ba99; stroke-width: 0.01"/>
     <use xlink:href="#m4f009ff7b8" x="170.2724" y="306.613978" style="fill: #76ba99; stroke: #76ba99; stroke-width: 0.01"/>
     <use xlink:href="#m4f009ff7b8" x="182.1377" y="304.276186" style="fill: #76ba99; stroke: #76ba99; stroke-width: 0.01"/>
     <use xlink:href="#m4f009ff7b8" x="194.003" y="301.831473" style="fill: #76ba99; stroke: #76ba99; stroke-width: 0.01"/>
     <use xlink:href="#m4f009ff7b8" x="205.8683" y="299.716892" style="fill: #76ba99; stroke: #76ba99; stroke-width: 0.01"/>
     <use xlink:href="#m4f009ff7b8" x="217.7336" y="297.740014" style="fill: #76ba99; stroke: #76ba99; stroke-width: 0.01"/>
     <use xlink:href="#m4f009ff7b8" x="229.5989" y="295.889711" style="fill: #76ba99; stroke: #76ba99; stroke-width: 0.01"/>
     <use xlink:href="#m4f009ff7b8" x="241.4642" y="294.128064" style="fill: #76ba99; stroke: #76ba99; stroke-width: 0.01"/>
     <use xlink:href="#m4f009ff7b8" x="253.3295" y="292.324301" style="fill: #76ba99; stroke: #76ba99; stroke-width: 0.01"/>
     <use xlink:href="#m4f009ff7b8" x="265.1948" y="291.107624" style="fill: #76ba99; stroke: #76ba99; stroke-width: 0.01"/>
     <use xlink:href="#m4f009ff7b8" x="277.0601" y="288.912578" style="fill: #76ba99; stroke: #76ba99; stroke-width: 0.01"/>
     <use xlink:href="#m4f009ff7b8" x="288.9254" y="286.965841" style="fill: #76ba99; stroke: #76ba99; stroke-width: 0.01"/>
     <use xlink:href="#m4f009ff7b8" x="300.7907" y="284.931758" style="fill: #76ba99; stroke: #76ba99; stroke-width: 0.01"/>
     <use xlink:href="#m4f009ff7b8" x="312.656" y="282.329057" style="fill: #76ba99; stroke: #76ba99; stroke-width: 0.01"/>
     <use xlink:href="#m4f009ff7b8" x="324.5213" y="279.830361" style="fill: #76ba99; stroke: #76ba99; stroke-width: 0.01"/>
     <use xlink:href="#m4f009ff7b8" x="336.3866" y="276.867538" style="fill: #76ba99; stroke: #76ba99; stroke-width: 0.01"/>
     <use xlink:href="#m4f009ff7b8" x="348.2519" y="273.562387" style="fill: #76ba99; stroke: #76ba99; stroke-width: 0.01"/>
     <use xlink:href="#m4f009ff7b8" x="360.1172" y="269.826527" style="fill: #76ba99; stroke: #76ba99; stroke-width: 0.01"/>
     <use xlink:href="#m4f009ff7b8" x="371.9825" y="264.153555" style="fill: #76ba99; stroke: #76ba99; stroke-width: 0.01"/>
     <use xlink:href="#m4f009ff7b8" x="383.8478" y="258.521433" style="fill: #76ba99; stroke: #76ba99; stroke-width: 0.01"/>
     <use xlink:href="#m4f009ff7b8" x="395.7131" y="251.280542" style="fill: #76ba99; stroke: #76ba99; stroke-width: 0.01"/>
     <use xlink:href="#m4f009ff7b8" x="407.5784" y="242.7588" style="fill: #76ba99; stroke: #76ba99; stroke-width: 0.01"/>
     <use xlink:href="#m4f009ff7b8" x="419.4437" y="228.808167" style="fill: #76ba99; stroke: #76ba99; stroke-width: 0.01"/>
     <use xlink:href="#m4f009ff7b8" x="431.309" y="209.914032" style="fill: #76ba99; stroke: #76ba99; stroke-width: 0.01"/>
     <use xlink:href="#m4f009ff7b8" x="443.1743" y="170.739663" style="fill: #76ba99; stroke: #76ba99; stroke-width: 0.01"/>
     <use xlink:href="#m4f009ff7b8" x="455.0396" y="82.559784" style="fill: #76ba99; stroke: #76ba99; stroke-width: 0.01"/>
    </g>
   </g>
   <g id="line2d_32">
    <path d="M 75.35 240.9395 
L 470.86 240.9395 
" clip-path="url(#pa85d9332b3)" style="fill: none; stroke-dasharray: 5.55,2.4; stroke-dashoffset: 0; stroke: #779de9; stroke-width: 1.5"/>
   </g>
   <g id="patch_8">
    <path d="M 75.35 348.19 
L 75.35 194.975 
" style="fill: none; stroke: #000000; stroke-width: 0.8; stroke-linejoin: miter; stroke-linecap: square"/>
   </g>
   <g id="patch_9">
    <path d="M 470.86 348.19 
L 470.86 194.975 
" style="fill: none; stroke: #000000; stroke-width: 0.8; stroke-linejoin: miter; stroke-linecap: square"/>
   </g>
   <g id="patch_10">
    <path d="M 75.35 348.19 
L 470.86 348.19 
" style="fill: none; stroke: #000000; stroke-width: 0.8; stroke-linejoin: miter; stroke-linecap: square"/>
   </g>
   <g id="text_19">
    <!-- SR Time -->
    <g transform="translate(87.2153 223.064417)scale(0.2 -0.2)">
     <defs>
      <path id="DejaVuSans-53" d="M 3425 4513 
L 3425 3897 
Q 3066 4069 2747 4153 
Q 2428 4238 2131 4238 
Q 1616 4238 1336 4038 
Q 1056 3838 1056 3469 
Q 1056 3159 1242 3001 
Q 1428 2844 1947 2747 
L 2328 2669 
Q 3034 2534 3370 2195 
Q 3706 1856 3706 1288 
Q 3706 609 3251 259 
Q 2797 -91 1919 -91 
Q 1588 -91 1214 -16 
Q 841 59 441 206 
L 441 856 
Q 825 641 1194 531 
Q 1563 422 1919 422 
Q 2459 422 2753 634 
Q 3047 847 3047 1241 
Q 3047 1584 2836 1778 
Q 2625 1972 2144 2069 
L 1759 2144 
Q 1053 2284 737 2584 
Q 422 2884 422 3419 
Q 422 4038 858 4394 
Q 1294 4750 2059 4750 
Q 2388 4750 2728 4690 
Q 3069 4631 3425 4513 
z
" transform="scale(0.015625)"/>
      <path id="DejaVuSans-52" d="M 2841 2188 
Q 3044 2119 3236 1894 
Q 3428 1669 3622 1275 
L 4263 0 
L 3584 0 
L 2988 1197 
Q 2756 1666 2539 1819 
Q 2322 1972 1947 1972 
L 1259 1972 
L 1259 0 
L 628 0 
L 628 4666 
L 2053 4666 
Q 2853 4666 3247 4331 
Q 3641 3997 3641 3322 
Q 3641 2881 3436 2590 
Q 3231 2300 2841 2188 
z
M 1259 4147 
L 1259 2491 
L 2053 2491 
Q 2509 2491 2742 2702 
Q 2975 2913 2975 3322 
Q 2975 3731 2742 3939 
Q 2509 4147 2053 4147 
L 1259 4147 
z
" transform="scale(0.015625)"/>
      <path id="DejaVuSans-20" transform="scale(0.015625)"/>
      <path id="DejaVuSans-54" d="M -19 4666 
L 3928 4666 
L 3928 4134 
L 2272 4134 
L 2272 0 
L 1638 0 
L 1638 4134 
L -19 4134 
L -19 4666 
z
" transform="scale(0.015625)"/>
      <path id="DejaVuSans-69" d="M 603 3500 
L 1178 3500 
L 1178 0 
L 603 0 
L 603 3500 
z
M 603 4863 
L 1178 4863 
L 1178 4134 
L 603 4134 
L 603 4863 
z
" transform="scale(0.015625)"/>
      <path id="DejaVuSans-6d" d="M 3328 2828 
Q 3544 3216 3844 3400 
Q 4144 3584 4550 3584 
Q 5097 3584 5394 3201 
Q 5691 2819 5691 2113 
L 5691 0 
L 5113 0 
L 5113 2094 
Q 5113 2597 4934 2840 
Q 4756 3084 4391 3084 
Q 3944 3084 3684 2787 
Q 3425 2491 3425 1978 
L 3425 0 
L 2847 0 
L 2847 2094 
Q 2847 2600 2669 2842 
Q 2491 3084 2119 3084 
Q 1678 3084 1418 2786 
Q 1159 2488 1159 1978 
L 1159 0 
L 581 0 
L 581 3500 
L 1159 3500 
L 1159 2956 
Q 1356 3278 1631 3431 
Q 1906 3584 2284 3584 
Q 2666 3584 2933 3390 
Q 3200 3197 3328 2828 
z
" transform="scale(0.015625)"/>
     </defs>
     <use xlink:href="#DejaVuSans-53"/>
     <use xlink:href="#DejaVuSans-52" x="63.476562"/>
     <use xlink:href="#DejaVuSans-20" x="132.958984"/>
     <use xlink:href="#DejaVuSans-54" x="164.746094"/>
     <use xlink:href="#DejaVuSans-69" x="222.705078"/>
     <use xlink:href="#DejaVuSans-6d" x="250.488281"/>
     <use xlink:href="#DejaVuSans-65" x="347.900391"/>
    </g>
   </g>
  </g>
  <g id="axes_3">
   <g id="matplotlib.axis_5">
    <g id="ytick_8">
     <g id="line2d_33">
      <defs>
       <path id="m7f2f7fa2cf" d="M 0 0 
L 3.5 0 
" style="stroke: #000000; stroke-width: 0.8"/>
      </defs>
      <g>
       <use xlink:href="#m7f2f7fa2cf" x="470.86" y="169.775" style="stroke: #000000; stroke-width: 0.8"/>
      </g>
     </g>
     <g id="text_20">
      <!-- 0 -->
      <g transform="translate(477.86 175.473828)scale(0.15 -0.15)">
       <use xlink:href="#DejaVuSans-30"/>
      </g>
     </g>
    </g>
    <g id="ytick_9">
     <g id="line2d_34">
      <g>
       <use xlink:href="#m7f2f7fa2cf" x="470.86" y="131.47125" style="stroke: #000000; stroke-width: 0.8"/>
      </g>
     </g>
     <g id="text_21">
      <!-- 100 -->
      <g transform="translate(477.86 137.170078)scale(0.15 -0.15)">
       <use xlink:href="#DejaVuSans-31"/>
       <use xlink:href="#DejaVuSans-30" x="63.623047"/>
       <use xlink:href="#DejaVuSans-30" x="127.246094"/>
      </g>
     </g>
    </g>
    <g id="ytick_10">
     <g id="line2d_35">
      <g>
       <use xlink:href="#m7f2f7fa2cf" x="470.86" y="93.1675" style="stroke: #000000; stroke-width: 0.8"/>
      </g>
     </g>
     <g id="text_22">
      <!-- 200 -->
      <g transform="translate(477.86 98.866328)scale(0.15 -0.15)">
       <use xlink:href="#DejaVuSans-32"/>
       <use xlink:href="#DejaVuSans-30" x="63.623047"/>
       <use xlink:href="#DejaVuSans-30" x="127.246094"/>
      </g>
     </g>
    </g>
    <g id="ytick_11">
     <g id="line2d_36">
      <g>
       <use xlink:href="#m7f2f7fa2cf" x="470.86" y="54.86375" style="stroke: #000000; stroke-width: 0.8"/>
      </g>
     </g>
     <g id="text_23">
      <!-- 300 -->
      <g transform="translate(477.86 60.562578)scale(0.15 -0.15)">
       <use xlink:href="#DejaVuSans-33"/>
       <use xlink:href="#DejaVuSans-30" x="63.623047"/>
       <use xlink:href="#DejaVuSans-30" x="127.246094"/>
      </g>
     </g>
    </g>
    <g id="ytick_12">
     <g id="line2d_37">
      <g>
       <use xlink:href="#m7f2f7fa2cf" x="470.86" y="16.56" style="stroke: #000000; stroke-width: 0.8"/>
      </g>
     </g>
     <g id="text_24">
      <!-- 400 -->
      <g transform="translate(477.86 22.258828)scale(0.15 -0.15)">
       <use xlink:href="#DejaVuSans-34"/>
       <use xlink:href="#DejaVuSans-30" x="63.623047"/>
       <use xlink:href="#DejaVuSans-30" x="127.246094"/>
      </g>
     </g>
    </g>
    <g id="text_25">
     <!-- Size(KB) -->
     <g transform="translate(525.050625 132.620625)rotate(-90)scale(0.2 -0.2)">
      <defs>
       <path id="ArialMT-4b" d="M 469 0 
L 469 4581 
L 1075 4581 
L 1075 2309 
L 3350 4581 
L 4172 4581 
L 2250 2725 
L 4256 0 
L 3456 0 
L 1825 2319 
L 1075 1588 
L 1075 0 
L 469 0 
z
" transform="scale(0.015625)"/>
       <path id="ArialMT-42" d="M 469 0 
L 469 4581 
L 2188 4581 
Q 2713 4581 3030 4442 
Q 3347 4303 3526 4014 
Q 3706 3725 3706 3409 
Q 3706 3116 3547 2856 
Q 3388 2597 3066 2438 
Q 3481 2316 3704 2022 
Q 3928 1728 3928 1328 
Q 3928 1006 3792 729 
Q 3656 453 3456 303 
Q 3256 153 2954 76 
Q 2653 0 2216 0 
L 469 0 
z
M 1075 2656 
L 2066 2656 
Q 2469 2656 2644 2709 
Q 2875 2778 2992 2937 
Q 3109 3097 3109 3338 
Q 3109 3566 3000 3739 
Q 2891 3913 2687 3977 
Q 2484 4041 1991 4041 
L 1075 4041 
L 1075 2656 
z
M 1075 541 
L 2216 541 
Q 2509 541 2628 563 
Q 2838 600 2978 687 
Q 3119 775 3209 942 
Q 3300 1109 3300 1328 
Q 3300 1584 3169 1773 
Q 3038 1963 2805 2039 
Q 2572 2116 2134 2116 
L 1075 2116 
L 1075 541 
z
" transform="scale(0.015625)"/>
      </defs>
      <use xlink:href="#ArialMT-53"/>
      <use xlink:href="#ArialMT-69" x="66.699219"/>
      <use xlink:href="#ArialMT-7a" x="88.916016"/>
      <use xlink:href="#ArialMT-65" x="138.916016"/>
      <use xlink:href="#ArialMT-28" x="194.53125"/>
      <use xlink:href="#ArialMT-4b" x="227.832031"/>
      <use xlink:href="#ArialMT-42" x="294.53125"/>
      <use xlink:href="#ArialMT-29" x="361.230469"/>
     </g>
    </g>
   </g>
   <g id="patch_11">
    <path d="M 75.35 169.775 
L 75.35 16.56 
" style="fill: none; stroke: #000000; stroke-width: 0.8; stroke-linejoin: miter; stroke-linecap: square"/>
   </g>
   <g id="patch_12">
    <path d="M 470.86 169.775 
L 470.86 16.56 
" style="fill: none; stroke: #000000; stroke-width: 0.8; stroke-linejoin: miter; stroke-linecap: square"/>
   </g>
   <g id="patch_13">
    <path d="M 75.35 16.56 
L 470.86 16.56 
" style="fill: none; stroke: #000000; stroke-width: 0.8; stroke-linejoin: miter; stroke-linecap: square"/>
   </g>
   <g id="text_26">
    <!-- 540px2 SR acc. -->
    <g transform="translate(205.8683 131.47125)scale(0.2 -0.2)">
     <defs>
      <path id="DejaVuSans-35" d="M 691 4666 
L 3169 4666 
L 3169 4134 
L 1269 4134 
L 1269 2991 
Q 1406 3038 1543 3061 
Q 1681 3084 1819 3084 
Q 2600 3084 3056 2656 
Q 3513 2228 3513 1497 
Q 3513 744 3044 326 
Q 2575 -91 1722 -91 
Q 1428 -91 1123 -41 
Q 819 9 494 109 
L 494 744 
Q 775 591 1075 516 
Q 1375 441 1709 441 
Q 2250 441 2565 725 
Q 2881 1009 2881 1497 
Q 2881 1984 2565 2268 
Q 2250 2553 1709 2553 
Q 1456 2553 1204 2497 
Q 953 2441 691 2322 
L 691 4666 
z
" transform="scale(0.015625)"/>
      <path id="DejaVuSans-70" d="M 1159 525 
L 1159 -1331 
L 581 -1331 
L 581 3500 
L 1159 3500 
L 1159 2969 
Q 1341 3281 1617 3432 
Q 1894 3584 2278 3584 
Q 2916 3584 3314 3078 
Q 3713 2572 3713 1747 
Q 3713 922 3314 415 
Q 2916 -91 2278 -91 
Q 1894 -91 1617 61 
Q 1341 213 1159 525 
z
M 3116 1747 
Q 3116 2381 2855 2742 
Q 2594 3103 2138 3103 
Q 1681 3103 1420 2742 
Q 1159 2381 1159 1747 
Q 1159 1113 1420 752 
Q 1681 391 2138 391 
Q 2594 391 2855 752 
Q 3116 1113 3116 1747 
z
" transform="scale(0.015625)"/>
      <path id="DejaVuSans-78" d="M 3513 3500 
L 2247 1797 
L 3578 0 
L 2900 0 
L 1881 1375 
L 863 0 
L 184 0 
L 1544 1831 
L 300 3500 
L 978 3500 
L 1906 2253 
L 2834 3500 
L 3513 3500 
z
" transform="scale(0.015625)"/>
      <path id="DejaVuSans-61" d="M 2194 1759 
Q 1497 1759 1228 1600 
Q 959 1441 959 1056 
Q 959 750 1161 570 
Q 1363 391 1709 391 
Q 2188 391 2477 730 
Q 2766 1069 2766 1631 
L 2766 1759 
L 2194 1759 
z
M 3341 1997 
L 3341 0 
L 2766 0 
L 2766 531 
Q 2569 213 2275 61 
Q 1981 -91 1556 -91 
Q 1019 -91 701 211 
Q 384 513 384 1019 
Q 384 1609 779 1909 
Q 1175 2209 1959 2209 
L 2766 2209 
L 2766 2266 
Q 2766 2663 2505 2880 
Q 2244 3097 1772 3097 
Q 1472 3097 1187 3025 
Q 903 2953 641 2809 
L 641 3341 
Q 956 3463 1253 3523 
Q 1550 3584 1831 3584 
Q 2591 3584 2966 3190 
Q 3341 2797 3341 1997 
z
" transform="scale(0.015625)"/>
     </defs>
     <use xlink:href="#DejaVuSans-35"/>
     <use xlink:href="#DejaVuSans-34" x="63.623047"/>
     <use xlink:href="#DejaVuSans-30" x="127.246094"/>
     <use xlink:href="#DejaVuSans-70" x="190.869141"/>
     <use xlink:href="#DejaVuSans-78" x="254.345703"/>
     <use xlink:href="#DejaVuSans-32" x="313.525391"/>
     <use xlink:href="#DejaVuSans-20" x="377.148438"/>
     <use xlink:href="#DejaVuSans-53" x="408.935547"/>
     <use xlink:href="#DejaVuSans-52" x="472.412109"/>
     <use xlink:href="#DejaVuSans-20" x="541.894531"/>
     <use xlink:href="#DejaVuSans-61" x="573.681641"/>
     <use xlink:href="#DejaVuSans-63" x="634.960938"/>
     <use xlink:href="#DejaVuSans-63" x="689.941406"/>
     <use xlink:href="#DejaVuSans-2e" x="744.921875"/>
    </g>
   </g>
   <g id="line2d_38">
    <path d="M 75.35 164.849729 
L 87.2153 162.810723 
L 99.0806 161.088551 
L 110.9459 159.597634 
L 122.8112 158.304343 
L 134.6765 157.114903 
L 146.5418 156.08291 
L 158.4071 155.069452 
L 170.2724 154.183992 
L 182.1377 153.30732 
L 194.003 152.390552 
L 205.8683 151.597585 
L 217.7336 150.856255 
L 229.5989 150.162392 
L 241.4642 149.501774 
L 253.3295 148.825363 
L 265.1948 148.369109 
L 277.0601 147.545967 
L 288.9254 146.81594 
L 300.7907 146.053159 
L 312.656 145.077146 
L 324.5213 144.140135 
L 336.3866 143.029077 
L 348.2519 141.789645 
L 360.1172 140.388698 
L 371.9825 138.261333 
L 383.8478 136.149287 
L 395.7131 133.433953 
L 407.5784 130.2383 
L 419.4437 125.006813 
L 431.309 117.921512 
L 443.1743 103.231124 
L 455.0396 70.163669 
" clip-path="url(#p275b87c454)" style="fill: none; stroke: #2d4059; stroke-width: 1.5; stroke-linecap: square"/>
    <g clip-path="url(#p275b87c454)">
     <use xlink:href="#mb69bde06cd" x="75.35" y="164.849729" style="fill: #2d4059; stroke: #2d4059; stroke-width: 0.1; stroke-linejoin: miter"/>
     <use xlink:href="#mb69bde06cd" x="87.2153" y="162.810723" style="fill: #2d4059; stroke: #2d4059; stroke-width: 0.1; stroke-linejoin: miter"/>
     <use xlink:href="#mb69bde06cd" x="99.0806" y="161.088551" style="fill: #2d4059; stroke: #2d4059; stroke-width: 0.1; stroke-linejoin: miter"/>
     <use xlink:href="#mb69bde06cd" x="110.9459" y="159.597634" style="fill: #2d4059; stroke: #2d4059; stroke-width: 0.1; stroke-linejoin: miter"/>
     <use xlink:href="#mb69bde06cd" x="122.8112" y="158.304343" style="fill: #2d4059; stroke: #2d4059; stroke-width: 0.1; stroke-linejoin: miter"/>
     <use xlink:href="#mb69bde06cd" x="134.6765" y="157.114903" style="fill: #2d4059; stroke: #2d4059; stroke-width: 0.1; stroke-linejoin: miter"/>
     <use xlink:href="#mb69bde06cd" x="146.5418" y="156.08291" style="fill: #2d4059; stroke: #2d4059; stroke-width: 0.1; stroke-linejoin: miter"/>
     <use xlink:href="#mb69bde06cd" x="158.4071" y="155.069452" style="fill: #2d4059; stroke: #2d4059; stroke-width: 0.1; stroke-linejoin: miter"/>
     <use xlink:href="#mb69bde06cd" x="170.2724" y="154.183992" style="fill: #2d4059; stroke: #2d4059; stroke-width: 0.1; stroke-linejoin: miter"/>
     <use xlink:href="#mb69bde06cd" x="182.1377" y="153.30732" style="fill: #2d4059; stroke: #2d4059; stroke-width: 0.1; stroke-linejoin: miter"/>
     <use xlink:href="#mb69bde06cd" x="194.003" y="152.390552" style="fill: #2d4059; stroke: #2d4059; stroke-width: 0.1; stroke-linejoin: miter"/>
     <use xlink:href="#mb69bde06cd" x="205.8683" y="151.597585" style="fill: #2d4059; stroke: #2d4059; stroke-width: 0.1; stroke-linejoin: miter"/>
     <use xlink:href="#mb69bde06cd" x="217.7336" y="150.856255" style="fill: #2d4059; stroke: #2d4059; stroke-width: 0.1; stroke-linejoin: miter"/>
     <use xlink:href="#mb69bde06cd" x="229.5989" y="150.162392" style="fill: #2d4059; stroke: #2d4059; stroke-width: 0.1; stroke-linejoin: miter"/>
     <use xlink:href="#mb69bde06cd" x="241.4642" y="149.501774" style="fill: #2d4059; stroke: #2d4059; stroke-width: 0.1; stroke-linejoin: miter"/>
     <use xlink:href="#mb69bde06cd" x="253.3295" y="148.825363" style="fill: #2d4059; stroke: #2d4059; stroke-width: 0.1; stroke-linejoin: miter"/>
     <use xlink:href="#mb69bde06cd" x="265.1948" y="148.369109" style="fill: #2d4059; stroke: #2d4059; stroke-width: 0.1; stroke-linejoin: miter"/>
     <use xlink:href="#mb69bde06cd" x="277.0601" y="147.545967" style="fill: #2d4059; stroke: #2d4059; stroke-width: 0.1; stroke-linejoin: miter"/>
     <use xlink:href="#mb69bde06cd" x="288.9254" y="146.81594" style="fill: #2d4059; stroke: #2d4059; stroke-width: 0.1; stroke-linejoin: miter"/>
     <use xlink:href="#mb69bde06cd" x="300.7907" y="146.053159" style="fill: #2d4059; stroke: #2d4059; stroke-width: 0.1; stroke-linejoin: miter"/>
     <use xlink:href="#mb69bde06cd" x="312.656" y="145.077146" style="fill: #2d4059; stroke: #2d4059; stroke-width: 0.1; stroke-linejoin: miter"/>
     <use xlink:href="#mb69bde06cd" x="324.5213" y="144.140135" style="fill: #2d4059; stroke: #2d4059; stroke-width: 0.1; stroke-linejoin: miter"/>
     <use xlink:href="#mb69bde06cd" x="336.3866" y="143.029077" style="fill: #2d4059; stroke: #2d4059; stroke-width: 0.1; stroke-linejoin: miter"/>
     <use xlink:href="#mb69bde06cd" x="348.2519" y="141.789645" style="fill: #2d4059; stroke: #2d4059; stroke-width: 0.1; stroke-linejoin: miter"/>
     <use xlink:href="#mb69bde06cd" x="360.1172" y="140.388698" style="fill: #2d4059; stroke: #2d4059; stroke-width: 0.1; stroke-linejoin: miter"/>
     <use xlink:href="#mb69bde06cd" x="371.9825" y="138.261333" style="fill: #2d4059; stroke: #2d4059; stroke-width: 0.1; stroke-linejoin: miter"/>
     <use xlink:href="#mb69bde06cd" x="383.8478" y="136.149287" style="fill: #2d4059; stroke: #2d4059; stroke-width: 0.1; stroke-linejoin: miter"/>
     <use xlink:href="#mb69bde06cd" x="395.7131" y="133.433953" style="fill: #2d4059; stroke: #2d4059; stroke-width: 0.1; stroke-linejoin: miter"/>
     <use xlink:href="#mb69bde06cd" x="407.5784" y="130.2383" style="fill: #2d4059; stroke: #2d4059; stroke-width: 0.1; stroke-linejoin: miter"/>
     <use xlink:href="#mb69bde06cd" x="419.4437" y="125.006813" style="fill: #2d4059; stroke: #2d4059; stroke-width: 0.1; stroke-linejoin: miter"/>
     <use xlink:href="#mb69bde06cd" x="431.309" y="117.921512" style="fill: #2d4059; stroke: #2d4059; stroke-width: 0.1; stroke-linejoin: miter"/>
     <use xlink:href="#mb69bde06cd" x="443.1743" y="103.231124" style="fill: #2d4059; stroke: #2d4059; stroke-width: 0.1; stroke-linejoin: miter"/>
     <use xlink:href="#mb69bde06cd" x="455.0396" y="70.163669" style="fill: #2d4059; stroke: #2d4059; stroke-width: 0.1; stroke-linejoin: miter"/>
    </g>
   </g>
  </g>
 </g>
 <defs>
  <clipPath id="p275b87c454">
   <rect x="75.35" y="16.56" width="395.51" height="153.215"/>
  </clipPath>
  <clipPath id="pa85d9332b3">
   <rect x="75.35" y="194.975" width="395.51" height="153.215"/>
  </clipPath>
 </defs>
</svg>
